<svg width="950" height="300"><g><g><text x="62.83199661470068" y="135" font-size="17.5">1</text><text font-size="16" x="56.58199661470068" y="124.5"></text><line x1="77.28199661470069" y1="128.76125" x2="94.78199661470069" y2="128.76125" style="stroke: black; stroke-width: 1;"></line></g><line x1="253.71066113704643" y1="97.5" x2="253.71066113704643" y2="162.5" style="stroke: black; stroke-width: 1;"></line><text font-size="15" x="25" y="91.5" text-anchor="middle">1</text><line x1="25" y1="97.5" x2="25" y2="162.5" style="stroke: black; stroke-width: 1;"></line><g><circle fill="black" r="1.225" cx="132.5559111778681" cy="145"></circle><circle fill="black" r="1.225" cx="132.5559111778681" cy="150"></circle><text x="127.65591117786809" y="135" font-size="17.5">1</text><text font-size="16" x="121.40591117786809" y="124.5"></text></g><g><circle fill="black" r="1.225" cx="161.33974707480158" cy="145"></circle><circle fill="black" r="1.225" cx="161.33974707480158" cy="150"></circle><text x="156.43974707480157" y="135" font-size="17.5">1</text><text font-size="16" x="150.18974707480157" y="124.5"></text></g><g><circle fill="black" r="1.225" cx="184.45403953749056" cy="150"></circle><circle fill="black" r="1.225" cx="184.45403953749056" cy="155"></circle><text x="179.55403953749055" y="135" font-size="17.5">1</text><text font-size="16" x="173.30403953749055" y="124.5">♯</text></g><g><circle fill="black" r="1.225" cx="201.8987885659351" cy="150"></circle><circle fill="black" r="1.225" cx="201.8987885659351" cy="155"></circle><text x="196.9987885659351" y="135" font-size="17.5">2</text><text font-size="16" x="190.7487885659351" y="124.5"></text></g><g><circle fill="black" r="1.225" cx="219.34353759437963" cy="150"></circle><circle fill="black" r="1.225" cx="219.34353759437963" cy="155"></circle><text x="214.44353759437962" y="135" font-size="17.5">3</text><text font-size="16" x="208.19353759437962" y="124.5"></text></g><g><circle fill="black" r="1.225" cx="236.78828662282416" cy="150"></circle><circle fill="black" r="1.225" cx="236.78828662282416" cy="155"></circle><text x="231.88828662282415" y="135" font-size="17.5">4</text><text font-size="16" x="225.63828662282415" y="124.5"></text></g><line x1="127.65591117786809" y1="140" x2="241.33828662282414" y2="140" style="stroke: black; stroke-width: 1;"></line><line x1="179.55403953749055" y1="145" x2="241.33828662282414" y2="145" style="stroke: black; stroke-width: 1;"></line><g><circle fill="black" r="1.225" cx="292.03738156256804" cy="111.5"></circle><circle fill="black" r="1.225" cx="292.03738156256804" cy="106.5"></circle><text x="287.13738156256807" y="135" font-size="17.5">1</text><text font-size="16" x="280.88738156256807" y="124.5"></text></g><line x1="464.92442454121965" y1="97.5" x2="464.92442454121965" y2="162.5" style="stroke: black; stroke-width: 1;"></line><g><circle fill="black" r="1.225" cx="339.09082241361136" cy="111.5"></circle><circle fill="black" r="1.225" cx="339.09082241361136" cy="106.5"></circle><text x="334.1908224136114" y="135" font-size="17.5">4</text><text font-size="16" x="327.9408224136114" y="124.5"></text></g><g><text x="381.2442632646547" y="135" font-size="17.5">3</text><text font-size="16" x="374.9942632646547" y="124.5"></text></g><text font-size="13" x="374.7442632646547" y="114.342" text-anchor="middle">2</text><path d="M374.7442632646547 116.292 Q 374.7442632646547 122.342 379.9942632646547 122.342" stroke="black" fill="transparent"></path><line x1="371.4942632646547" y1="116.292" x2="377.9942632646547" y2="116.292" style="stroke: black; stroke-width: 1;"></line><g><text x="428.297704115698" y="135" font-size="17.5">1</text><text font-size="16" x="422.047704115698" y="124.5"></text></g><g><text x="498.78607766684655" y="135" font-size="17.5">6</text><text font-size="16" x="492.53607766684655" y="124.5"></text></g><line x1="713.7862365958268" y1="97.5" x2="713.7862365958268" y2="162.5" style="stroke: black; stroke-width: 1;"></line><g><text x="533.5823307551484" y="135" font-size="17.5">7</text><text font-size="16" x="527.3323307551484" y="124.5"></text></g><g><text x="555.2515306804984" y="135" font-size="17.5">1</text><text font-size="16" x="549.0015306804984" y="124.5"></text></g><g><text x="576.9207306058483" y="135" font-size="17.5">3</text><text font-size="16" x="570.6707306058483" y="124.5"></text></g><g><text x="598.5899305311983" y="135" font-size="17.5">5</text><text font-size="16" x="592.3399305311983" y="124.5"></text></g><g><text x="620.2591304565483" y="135" font-size="17.5">7</text><text font-size="16" x="614.0091304565483" y="124.5"></text></g><g><text x="641.9283303818983" y="135" font-size="17.5">2</text><text font-size="16" x="635.6783303818983" y="124.5"></text></g><line x1="533.5823307551484" y1="140" x2="651.3783303818983" y2="140" style="stroke: black; stroke-width: 1;"></line><g><text x="676.7245834702002" y="135" font-size="17.5">4</text><text font-size="16" x="670.4745834702002" y="124.5"></text></g><g><text x="747.2129570213484" y="135" font-size="17.5">6</text><text font-size="16" x="740.9629570213484" y="124.5"></text></g><line x1="925" y1="97.5" x2="925" y2="162.5" style="stroke: black; stroke-width: 1;"></line><g><text x="794.2663978723917" y="135" font-size="17.5">7</text><text font-size="16" x="788.0163978723917" y="124.5"></text></g><g><text x="841.319838723435" y="135" font-size="17.5">2</text><text font-size="16" x="835.069838723435" y="124.5"></text></g><g><text x="888.3732795744784" y="135" font-size="17.5">3</text><text font-size="16" x="882.1232795744784" y="124.5"></text></g><g><text x="56.060251702497" y="269.6938775510204" font-size="17.5">5</text><text font-size="16" x="49.810251702497" y="259.1938775510204"></text></g><line x1="217.28201361997597" y1="232.19387755102042" x2="217.28201361997597" y2="297.1938775510204" style="stroke: black; stroke-width: 1;"></line><text font-size="15" x="25" y="226.19387755102042" text-anchor="middle">5</text><line x1="25" y1="232.19387755102042" x2="25" y2="297.1938775510204" style="stroke: black; stroke-width: 1;"></line><g><text x="98.38075510749098" y="269.6938775510204" font-size="17.5">6</text><text font-size="16" x="92.13075510749098" y="259.1938775510204"></text></g><g><text x="140.70125851248497" y="269.6938775510204" font-size="17.5">7</text><text font-size="16" x="134.45125851248497" y="259.1938775510204"></text></g><g><text x="183.02176191747895" y="269.6938775510204" font-size="17.5">3</text><text font-size="16" x="176.77176191747895" y="259.1938775510204"></text></g><g><text x="248.34226532247297" y="269.6938775510204" font-size="17.5">2</text><text font-size="16" x="242.09226532247297" y="259.1938775510204"></text></g><line x1="409.56402723995194" y1="232.19387755102042" x2="409.56402723995194" y2="297.1938775510204" style="stroke: black; stroke-width: 1;"></line><g><text x="290.662768727467" y="269.6938775510204" font-size="17.5">4</text><text font-size="16" x="284.412768727467" y="259.1938775510204"></text></g><g><text x="332.98327213246097" y="269.6938775510204" font-size="17.5">1</text><text font-size="16" x="326.73327213246097" y="259.1938775510204"></text></g><g><text x="375.30377553745495" y="269.6938775510204" font-size="17.5">1</text><text font-size="16" x="369.05377553745495" y="259.1938775510204"></text></g><g><text x="440.62427894244894" y="269.6938775510204" font-size="17.5">1</text><text font-size="16" x="434.37427894244894" y="259.1938775510204"></text></g><line x1="601.8460408599279" y1="232.19387755102042" x2="601.8460408599279" y2="297.1938775510204" style="stroke: black; stroke-width: 1;"></line><g><text x="482.9447823474429" y="269.6938775510204" font-size="17.5">3</text><text font-size="16" x="476.6947823474429" y="259.1938775510204"></text></g><g><text x="525.2652857524369" y="269.6938775510204" font-size="17.5">2</text><text font-size="16" x="519.0152857524369" y="259.1938775510204"></text></g><g><text x="567.5857891574309" y="269.6938775510204" font-size="17.5">1</text><text font-size="16" x="561.3357891574309" y="259.1938775510204"></text></g><g><text x="632.9062925624249" y="269.6938775510204" font-size="17.5">1</text><text font-size="16" x="626.6562925624249" y="259.1938775510204"></text></g><line x1="794.1280544799039" y1="232.19387755102042" x2="794.1280544799039" y2="297.1938775510204" style="stroke: black; stroke-width: 1;"></line><g><text x="675.226795967419" y="269.6938775510204" font-size="17.5">7</text><text font-size="16" x="668.976795967419" y="259.1938775510204"></text></g><g><text x="717.547299372413" y="269.6938775510204" font-size="17.5">2</text><text font-size="16" x="711.297299372413" y="259.1938775510204"></text></g><g><text x="759.8678027774071" y="269.6938775510204" font-size="17.5">1</text><text font-size="16" x="753.6178027774071" y="259.1938775510204"></text></g><line x1="925" y1="232.19387755102042" x2="925" y2="297.1938775510204" style="stroke: black; stroke-width: 1;"></line><g><line x1="805.6280544799039" y1="254.69387755102042" x2="805.6280544799039" y2="274.6938775510204" style="stroke: black; stroke-width: 1;"></line><line x1="913.5" y1="254.69387755102042" x2="913.5" y2="274.6938775510204" style="stroke: black; stroke-width: 1;"></line><line x1="805.6280544799039" y1="264.6938775510204" x2="913.5" y2="264.6938775510204" style="stroke: black; stroke-width: 1;"></line><text x="859.564027239952" y="260.6938775510204" font-size="17.5" text-anchor="middle">10</text></g><path d="M67.55699661470068 101.275 C 67.55699661470068 72.11529995677725, 291.8623815625681 72.11529995677725, 291.8623815625681 101.275" stroke="black" fill="transparent"></path><path d="M67.55699661470068 101.275 C 67.55699661470068 65.99835264614161, 338.9158224136114 65.99835264614161, 338.9158224136114 101.275" stroke="black" fill="transparent"></path><path d="M572.3107891574309 243.7858775510204 C 572.3107891574309 235.29421210837117, 637.631292562425 235.29421210837117, 637.631292562425 243.7858775510204" stroke="black" fill="transparent"></path><g><path d="M538.3073307551484 109.092 C 538.3073307551484 103.45800801940901, 581.6457306058484 103.45800801940901, 581.6457306058484 109.092" stroke="black" fill="transparent"></path><text x="559.9765306804984" y="101.592" font-size="12.5" text-anchor="middle">3</text></g><text x="10" y="64" font-size="22.5">1=D</text><text x="68.5" y="64" font-size="22.5">4/4</text><text x="113.5" y="64" font-size="22.5">♩=80</text></g></svg>